<svg xmlns="http://www.w3.org/2000/svg" width="41" height="48" fill="none" viewBox="0 0 41 48"><path fill="url(#paint0_linear)" d="M7.70112 0.141454L7.66968 0L7.54395 0.0314337L7.70112 0.141454Z"/><path fill="url(#paint1_linear)" d="M10.6874 43.7563L7.16675 44.4636L7.87402 48L11.3946 47.2927L10.6874 43.7563Z"/><path fill="url(#paint2_linear)" d="M23.3398 39.1512L38.9155 36.0235L38.2082 32.5029L22.6326 35.6149L23.3398 39.1512Z"/><path fill="url(#paint3_linear)" d="M17.0999 36.7307L17.8071 40.2513L21.3435 39.5441L20.6362 36.0234L17.0999 36.7307Z"/><path fill="url(#paint4_linear)" d="M16.9272 46.1769L16.2199 42.6562L12.6836 43.3635L13.3909 46.8841L16.9272 46.1769Z"/><path fill="url(#paint5_linear)" d="M6.75854 42.4677L10.2949 41.7604L9.58761 38.2397L6.05127 38.947L6.75854 42.4677Z"/><path fill="url(#paint6_linear)" d="M39.3083 38.0195L23.7327 41.1472L24.4399 44.6678L40.0156 41.5559L39.3083 38.0195Z"/><path fill="url(#paint7_linear)" d="M18.2163 42.2478L18.9236 45.7841L22.4442 45.0769L21.7369 41.5405L18.2163 42.2478Z"/><path fill="url(#paint8_linear)" d="M12.2908 41.3674L15.8114 40.6601L15.1041 37.1238L11.5835 37.831L12.2908 41.3674Z"/><path fill="url(#paint9_linear)" d="M5.65815 36.9509L7.15128 36.6523L1.49312 8.40869L0 8.70732L5.65815 36.9509Z"/><path fill="url(#paint10_linear)" d="M7.70156 36.5424L9.19468 36.2438L3.12789 5.92554L1.63477 6.22416L7.70156 36.5424Z"/><path fill="url(#paint11_linear)" d="M11.206 35.835L12.6991 35.5364L5.75216 0.911621L4.25903 1.21025L11.206 35.835Z"/><path fill="url(#paint12_linear)" d="M13.2495 35.4266L14.7426 35.128L8.37716 3.33228L6.88403 3.6309L13.2495 35.4266Z"/><path fill="url(#paint13_linear)" d="M16.7068 34.7347L18.2 34.4361L12.9819 8.39282L11.4888 8.69145L16.7068 34.7347Z"/><path fill="url(#paint14_linear)" d="M18.7507 34.3261L20.2438 34.0275L14.8371 6.99414L13.344 7.29277L18.7507 34.3261Z"/><defs><linearGradient id="paint0_linear" x1="19.017" x2="8.218" y1="56.977" y2="3.061" gradientUnits="userSpaceOnUse"><stop stop-color="#F9EC1C"/><stop offset="1" stop-color="#F05A2B"/></linearGradient><linearGradient id="paint1_linear" x1="11.486" x2=".686" y1="56.888" y2="2.972" gradientUnits="userSpaceOnUse"><stop stop-color="#F9EC1C"/><stop offset="1" stop-color="#F05A2B"/></linearGradient><linearGradient id="paint2_linear" x1="34.083" x2="23.283" y1="52.362" y2="-1.554" gradientUnits="userSpaceOnUse"><stop stop-color="#F9EC1C"/><stop offset="1" stop-color="#F05A2B"/></linearGradient><linearGradient id="paint3_linear" x1="22.535" x2="11.736" y1="54.675" y2=".759" gradientUnits="userSpaceOnUse"><stop stop-color="#F9EC1C"/><stop offset="1" stop-color="#F05A2B"/></linearGradient><linearGradient id="paint4_linear" x1="17.011" x2="6.211" y1="55.781" y2="1.865" gradientUnits="userSpaceOnUse"><stop stop-color="#F9EC1C"/><stop offset="1" stop-color="#F05A2B"/></linearGradient><linearGradient id="paint5_linear" x1="11.486" x2=".686" y1="56.888" y2="2.972" gradientUnits="userSpaceOnUse"><stop stop-color="#F9EC1C"/><stop offset="1" stop-color="#F05A2B"/></linearGradient><linearGradient id="paint6_linear" x1="34.083" x2="23.283" y1="52.362" y2="-1.554" gradientUnits="userSpaceOnUse"><stop stop-color="#F9EC1C"/><stop offset="1" stop-color="#F05A2B"/></linearGradient><linearGradient id="paint7_linear" x1="22.536" x2="11.736" y1="54.675" y2=".759" gradientUnits="userSpaceOnUse"><stop stop-color="#F9EC1C"/><stop offset="1" stop-color="#F05A2B"/></linearGradient><linearGradient id="paint8_linear" x1="17.011" x2="6.211" y1="55.781" y2="1.865" gradientUnits="userSpaceOnUse"><stop stop-color="#F9EC1C"/><stop offset="1" stop-color="#F05A2B"/></linearGradient><linearGradient id="paint9_linear" x1="10.257" x2=".014" y1="56.045" y2="4.91" gradientUnits="userSpaceOnUse"><stop stop-color="#F9EC1C"/><stop offset="1" stop-color="#F05A2B"/></linearGradient><linearGradient id="paint10_linear" x1="12.59" x2="1.593" y1="57.053" y2="2.152" gradientUnits="userSpaceOnUse"><stop stop-color="#F9EC1C"/><stop offset="1" stop-color="#F05A2B"/></linearGradient><linearGradient id="paint11_linear" x1="16.677" x2="4.117" y1="59.29" y2="-3.415" gradientUnits="userSpaceOnUse"><stop stop-color="#F9EC1C"/><stop offset="1" stop-color="#F05A2B"/></linearGradient><linearGradient id="paint12_linear" x1="18.338" x2="6.808" y1="56.944" y2="-.62" gradientUnits="userSpaceOnUse"><stop stop-color="#F9EC1C"/><stop offset="1" stop-color="#F05A2B"/></linearGradient><linearGradient id="paint13_linear" x1="21.006" x2="11.563" y1="52.328" y2="5.186" gradientUnits="userSpaceOnUse"><stop stop-color="#F9EC1C"/><stop offset="1" stop-color="#F05A2B"/></linearGradient><linearGradient id="paint14_linear" x1="23.192" x2="13.387" y1="52.598" y2="3.649" gradientUnits="userSpaceOnUse"><stop stop-color="#F9EC1C"/><stop offset="1" stop-color="#F05A2B"/></linearGradient></defs></svg>